<?xml version="1.0" encoding="utf-8"?>
<svg version="1.1" id="Layer_1" xmlns="http://www.w3.org/2000/svg" xmlns:xlink="http://www.w3.org/1999/xlink" x="0px" y="0px" viewBox="0 0 500 140" style="enable-background:new 0 0 500 140;" xml:space="preserve">
<g>
<path style="fill:#242424;" d="M145.7,28.5l-1-2.1h17.2c13.2,0,22.2,7.1,22.2,20.9c0,13.7-9,21-22.2,21h-16.2V28.5z M156.1,34.9v25h5.9c7.1,0,11.6-4.1,11.6-12.6s-4.5-12.4-11.6-12.4H156.1z"/>
<path style="fill:#242424;" d="M213.3,59.8h-15.8l-2.9,8.6h-10.6l15.3-40.4l-0.7-1.5h12.6L227,68.3h-10.7L213.3,59.8z M210.6,51.8l-5.1-14.9l-5.2,14.9H210.6z"/>
<path style="fill:#242424;" d="M231.2,28.5l-1-2.1h11.4v33.4h19.6v8.4h-30V28.5z"/>
<path style="fill:#242424;" d="M266.6,28.5l-1-2.1H277V43h17V28.5l-1-2.1h11.4v41.9H294V51.4h-17v16.9h-10.3V28.5z"/>
<path style="fill:#242424;" d="M332.2,25.8c11.9,0,21.7,8.3,21.7,21.5c0,13.2-9.8,21.6-21.7,21.6c-11.8,0-21.7-8.4-21.7-21.6C310.5,34.1,320.3,25.8,332.2,25.8z M332.2,60.1c6.8,0,11.1-5.5,11.1-12.7c0-7.3-4.3-12.7-11.1-12.7S321,40.1,321,47.3C321,54.6,325.4,60.1,332.2,60.1z"/>
<path style="fill:#242424;" d="M387.2,28.5l-1.1-2.1h11.4V51c0,11.5-7.3,18-18.8,18S360,62.5,360,51V28.5l-1.1-2.1h11.4v24.8c0,5.5,3.1,8.9,8.4,8.9s8.5-3.4,8.5-8.9V28.5z"/>
<path style="fill:#242424;" d="M404.5,57.4c5.3,2.1,11.1,3.2,15.4,3.2c4.4,0,7.2-1.5,7.2-4.2c0-2.8-3.2-4-8.4-4.9c-8.3-1.3-14.8-4.7-14.8-12.6c0-8.5,7.9-13,17.7-13c5.1,0,9.7,0.8,14.5,2.4v9c-5.2-1.9-10.2-3-14.4-3c-4.3,0-7.3,1.5-7.3,4.2c0,2.8,3.2,3.9,8.5,4.7c8.3,1.3,14.7,4.8,14.7,12.7c0,8.5-7.4,13-17.4,13c-5.5,0-10.9-1-15.7-2.6V57.4z"/>
<path style="fill:#242424;" d="M445.1,28.6l-1.1-2.1h11.4v41.9h-10.3V28.6z"/>
<path style="fill:#242424;" d="M464.4,28.6l-1.1-2.1h32.4v8.4h-21v8.4h17.9v8h-17.9v8.6h21v8.4h-31.3V28.6z"/>
<path style="fill:#242424;" d="M170.5,100c0,2.6-0.4,4.8-1.3,6.6c-0.9,1.8-2.2,3.2-4,4.1c-1.8,0.9-4.2,1.4-7.1,1.4c-2.9,0-5.3-0.5-7.1-1.4c-1.8-1-3.1-2.4-4-4.3c-0.8-1.9-1.2-4.2-1.2-6.9V77.9h4.5v22.3c0,2.7,0.7,4.8,2,6.1c1.4,1.4,3.3,2,5.8,2c1.7,0,3.1-0.3,4.3-0.9c1.2-0.6,2.1-1.5,2.7-2.7c0.6-1.2,0.9-2.7,0.9-4.6V77.9h4.3V100z"/>
<path style="fill:#242424;" d="M209.8,77.9h4.3v33.8h-3.9L192.1,85v26.6h-4.3V77.9h4.1l17.8,26.3V77.9z"/>
<path style="fill:#242424;" d="M233.2,77.9h4.3v33.8h-4.3V77.9z"/>
<path style="fill:#242424;" d="M281.3,77.9l-12,33.8h-5.2l-11.8-33.8h4.3l10.1,28.9L277,77.9H281.3z"/>
<path style="fill:#242424;" d="M294.2,111.7V77.9h21.3l0,3.8h-16.9v11h15.3v3.8h-15.3v11.3l17.4,0v3.9H294.2z"/>
<path style="fill:#242424;" d="M356.6,111.7H352l-6.2-14.6h-9.1v14.6h-4.3V77.9h13.1c2.4,0,4.5,0.4,6.1,1.1c1.6,0.7,2.9,1.8,3.7,3.2c0.8,1.4,1.2,3,1.2,4.9c0,1.8-0.3,3.4-1,4.6c-0.6,1.2-1.5,2.2-2.5,2.9c-1,0.7-2,1.3-3.1,1.7L356.6,111.7z M344.1,93.5c2.5,0,4.5-0.5,5.9-1.6c1.4-1,2.1-2.6,2.1-4.6c0-2-0.6-3.5-1.9-4.5c-1.2-1-2.9-1.5-5.1-1.5h-8.4v12.1H344.1z"/>
<path style="fill:#242424;" d="M384.7,112.1c-1.6,0-3.1-0.2-4.6-0.6c-1.5-0.4-2.9-1-4.1-1.8c-1.2-0.8-2.2-1.8-3-3c-0.8-1.2-1.3-2.5-1.5-4.1h4.5c0.3,1.3,0.8,2.4,1.7,3.2c0.8,0.9,1.9,1.5,3.1,2c1.2,0.4,2.5,0.7,3.9,0.7c1.6,0,3-0.2,4.3-0.7c1.3-0.4,2.2-1.1,3-1.9c0.7-0.8,1.1-1.8,1.1-3c0-1-0.2-1.9-0.7-2.6c-0.5-0.7-1.1-1.4-2-1.9c-0.9-0.5-1.9-0.9-3.2-1.2l-6.6-1.5c-2.5-0.5-4.4-1.5-5.9-2.9c-1.4-1.4-2.1-3.3-2.2-5.6c0-1.9,0.5-3.7,1.6-5.1c1-1.5,2.5-2.6,4.3-3.5c1.8-0.8,3.9-1.2,6.2-1.2c2.7,0,5,0.5,6.8,1.4c1.8,0.9,3.2,2.1,4.2,3.6c0.9,1.5,1.4,3.1,1.4,4.8h-4.5c-0.1-1.5-0.6-2.7-1.3-3.6c-0.8-0.9-1.7-1.5-2.8-1.9c-1.1-0.4-2.4-0.6-3.7-0.6c-1,0-1.9,0.1-2.8,0.4c-0.9,0.2-1.7,0.6-2.4,1.1c-0.7,0.5-1.3,1.1-1.7,1.8c-0.4,0.7-0.6,1.5-0.6,2.5c0,1.2,0.4,2.2,1.2,3c0.8,0.8,2.3,1.4,4.5,2l6.4,1.5c1.7,0.4,3.1,0.9,4.1,1.6c1.1,0.7,1.9,1.5,2.5,2.4c0.6,0.9,1,1.8,1.2,2.8c0.2,1,0.3,1.9,0.3,2.9c0,1.7-0.5,3.2-1.5,4.6c-1,1.4-2.5,2.5-4.4,3.3C389.7,111.7,387.4,112.1,384.7,112.1z"/>
<path style="fill:#242424;" d="M414,77.9h4.3v33.8H414V77.9z"/>
<path style="fill:#242424;" d="M433.1,81.9v-4h25.6v4h-10.3v29.8H444V81.9H433.1z"/>
<path style="fill:#242424;" d="M496.8,77.9l-11.4,19.4v14.4h-4.3V97.3l-11.5-19.4h4.7l9,15.5l8.8-15.5H496.8z"/>
</g>
<g>
<path style="fill:#242424;" d="M104.9,34c-0.1,0-6.1,1.9-13.7-0.1c-0.7-0.2-1.2-0.8-1.1-1.5c0,0,0,0,0-0.1c0.1-0.9,0.9-1.5,1.8-1.4c1.6,0.3,3.1,0.5,4.6,0.6c1.8,0.1,3.4,0.1,4.9-0.1c3.9-0.3,6.3-4.3,4.9-8l0,0c-0.1,0-8.3,3.2-17.9-0.7c-2.2-0.9-8.6-3.7-8.6-3.7c-1.4-0.6-3,0.2-3.2,1.7c0,0.1,0,0.2,0,0.3v12.2c0,2.1-0.5,3.9-1.3,5.5c-0.3,0.6-0.7,1.2-1.1,1.8c-0.2,0.3-0.4,0.5-0.7,0.8c-1.9,2.1-4.6,3.5-7.7,4.2l-1.7,2.9c-0.2,0.3-0.4,0.5-0.7,0.6c-0.3,0.1-0.6,0.2-0.9,0.2c-0.4,0-0.9-0.1-1.2-0.5c-0.1-0.1-0.2-0.2-0.3-0.4l-1.7-2.9c-4.2-1-7.7-3.3-9.5-6.8c-0.8-1.6-1.3-3.4-1.3-5.5V21.1c0-0.1,0-0.2,0-0.3c-0.2-1.5-1.9-2.3-3.2-1.7c0,0-6.5,2.8-8.6,3.7c-9.6,3.9-17.8,0.7-17.9,0.7l0,0c-1.4,3.6,1,7.6,4.9,8c1.5,0.1,3.1,0.2,4.9,0.1c1.4-0.1,3-0.3,4.6-0.6c0.9-0.2,1.7,0.5,1.8,1.4c0,0,0,0,0,0.1c0,0.7-0.4,1.4-1.1,1.5c-7.6,2-13.6,0.1-13.7,0.1l0,0c-1.2,3.7,1.4,7.6,5.3,7.7c1.5,0.1,3.1,0,4.9-0.2c1.4-0.1,2.8-0.4,4.3-0.7c0.8-0.2,1.6,0.3,1.8,1.1c0,0,0,0,0,0c0.2,0.8-0.3,1.5-1,1.8c-7,2.2-12.6,1-12.7,1l0,0c-0.9,3.8,2.1,7.4,5.9,7.2c1.5-0.1,3.1-0.3,4.8-0.6c1.2-0.2,2.5-0.6,3.9-1c0.8-0.2,1.6,0.2,1.8,0.9c0,0.1,0,0.1,0.1,0.2c0.3,0.7-0.1,1.5-0.8,1.9c-5.8,2.8-10.7,2.8-10.7,2.8h0C27.8,60,31.5,63,35.2,62c1.4-0.4,3-0.9,4.6-1.6c0.6-0.3,1.2-0.5,1.9-0.9c0.7-0.3,1.5-0.1,1.9,0.5c0,0,0.1,0.1,0.1,0.1c0.5,0.7,0.3,1.6-0.4,2.1c-4.2,2.8-7.9,3.6-7.9,3.6l0,0c0.7,3.8,4.9,5.9,8.4,4.1c1.3-0.7,2.7-1.5,4.2-2.5c0,0,0.1,0,0.1-0.1c0.6-0.4,1.4-0.4,1.9,0.2c0.1,0.1,0.1,0.1,0.2,0.2c0.5,0.5,0.6,1.4,0.1,2c-2.8,3.4-5.4,5-5.5,5l0,0c2,3.4,6.6,3.9,9.3,1.1c0.4-0.5,0.9-1,1.4-1.5c1.2,2.1,2.1,4.7,2.7,8.2c0.1,0.7,0.2,1.4,0.3,2.1c-6.1,6.6-13.4,8-13.5,8l0,0c0.7,3.8,4.8,6,8.3,4.3c1.3-0.6,2.7-1.5,4.2-2.4c0.6-0.4,1.1-0.8,1.7-1.2l0.2,3.9c-3.8,3-7.2,4.1-7.3,4.1l0,0l0.4,1.4c0.9,2.9,4.2,4.3,6.9,2.8c0.1-0.1,0.2-0.1,0.4-0.2v5.6c0,1,0.5,1.9,1.3,2.7l1.5,1.4h0l0,0l1.5-1.4c0.8-0.8,1.3-1.7,1.3-2.7v-5.6c0.1,0.1,0.2,0.2,0.4,0.2c2.6,1.5,6,0.1,6.9-2.8l0.4-1.4l0,0c-0.1,0-3.4-1.1-7.3-4.1l0.2-3.9c0.6,0.4,1.1,0.9,1.7,1.2c1.5,1,2.9,1.8,4.2,2.4c3.5,1.7,7.6-0.5,8.3-4.3l0,0c-0.1,0-7.3-1.4-13.5-8c0.1-0.7,0.2-1.4,0.3-2.1c0.5-3.4,1.5-6,2.7-8.2c0.5,0.5,0.9,1.1,1.4,1.5c2.7,2.8,7.3,2.3,9.3-1.1l0,0c0,0-2.7-1.6-5.5-5c-0.5-0.6-0.5-1.5,0.1-2c0.1-0.1,0.1-0.1,0.2-0.2c0.5-0.5,1.3-0.6,1.9-0.2c0,0,0.1,0,0.1,0.1c1.4,1,2.9,1.9,4.2,2.5c3.5,1.8,7.7-0.3,8.4-4.1l0,0c-0.1,0-3.7-0.8-7.9-3.6c-0.7-0.5-0.9-1.4-0.4-2.1c0,0,0.1-0.1,0.1-0.1c0.4-0.6,1.2-0.8,1.9-0.5c0.6,0.3,1.3,0.6,1.9,0.9c1.6,0.7,3.2,1.2,4.6,1.6c3.8,1,7.4-2,7.3-5.8h0c-0.1,0-5,0-10.7-2.8c-0.7-0.3-1-1.1-0.8-1.9c0-0.1,0-0.1,0.1-0.2c0.3-0.7,1.1-1.1,1.8-0.9c1.3,0.4,2.6,0.7,3.9,1c1.7,0.3,3.4,0.5,4.8,0.6c3.9,0.2,6.8-3.4,5.9-7.2l0,0c-0.1,0-5.7,1.2-12.7-1c-0.7-0.2-1.2-1-1-1.8c0,0,0,0,0,0c0.2-0.8,1-1.3,1.8-1.1c1.5,0.3,3,0.6,4.3,0.7c1.8,0.2,3.4,0.2,4.9,0.2C103.5,41.6,106.2,37.7,104.9,34L104.9,34z"/>
<path style="fill:#242424;" d="M71.5,20H61c-1.4,0-2.6,0.9-3.1,2.2h-2c-2.3,0-4.2,1.9-4.2,4.2l0,4.9c0.5-1.1,1.6-1.9,2.9-1.9h3.7L56,38.8c-0.2,0.6,0.2,1.1,0.7,1.1c1.8,0,2.5-0.3,3.9-1.6l1.5,4.2h0c0.1,0.2,0.2,0.3,0.4,0.3c0.2,0,0.3-0.1,0.4-0.3l1.5-4.2c1.3,1.3,2.1,1.6,3.9,1.6c0.6,0,0.9-0.6,0.7-1.1l-1.2-9.4h0.2c2.3,0,4.2-1.9,4.2-4.2v-0.1c0.9-0.6,1.5-1.6,1.5-2.7l0-3.8C73.4,19.4,72.5,20,71.5,20z M62.5,24.7c-0.3,0.2-0.7,0.1-1-0.1L60.9,24c-0.3-0.3-0.3-0.8,0-1.2l0.6-0.6c0.3-0.3,0.7-0.3,1-0.1l2.3,1.3L62.5,24.7z"/>
</g>
<path style="fill:#FFD400;" d="M117.1,49.3c0,38-44.7,74.4-54.7,82c-10-7.6-54.7-43.9-54.7-82V7.1h109.3V49.3z M1,0.3v48.9c0,19.5,10.1,40.4,29.9,62.2c14.6,16,29,26.3,29.6,26.8l2,1.4l2-1.4c0.6-0.4,15-10.7,29.6-26.8c19.8-21.8,29.9-42.7,29.9-62.2V0.3H1z"/>
</svg>